PathFileType	4	(X/Y/Z)	C:\Users\WrightLab\Desktop\Jo\P1_boxCal32.trc
DataRate	CameraRate	NumFrames	NumMarkers	Units	OrigDataRate	OrigDataStartFrame	OrigNumFrames
100.00	100.00	       22	19	mm	100.00	553	       737
Frame#	Time	Headset_Front			Headset_Back			Headset_Left			Headset_Right			Left_Shoulder			Right_Shoulder			Sternum			C7			Left Elbow			Right Elbow			Left Wrist			Right Wrist			Left ASIS			Right ASIS			S2			Left Knee			Right Knee			Left Ankle			Right Ankle			
		X1	Y1	Z1	X2	Y2	Z2	X3	Y3	Z3	X4	Y4	Z4	X5	Y5	Z5	X6	Y6	Z6	X7	Y7	Z7	X8	Y8	Z8	X9	Y9	Z9	X10	Y10	Z10	X11	Y11	Z11	X12	Y12	Z12	X13	Y13	Z13	X14	Y14	Z14	X15	Y15	Z15	X16	Y16	Z16	X17	Y17	Z17	X18	Y18	Z18	X19	Y19	Z19	

553	5.520	-593.69092	1355.40723	-1054.74500	-696.58411	1482.45886	-795.90680	-756.34808	1415.56958	-938.07172	-531.28717	1399.06506	-923.13428	-865.26532	1235.67383	-843.92554	-487.68042	1246.91516	-822.47137	-643.79718	1142.03076	-961.70782	-695.30768	1249.53040	-721.01129	-941.70642	916.41290	-824.37427	-370.04062	988.64081	-789.52448	-966.97272	749.20984	-968.47113	-326.94461	789.20300	-954.03369	-731.08093	856.46967	-985.51666	-538.13867	858.41321	-943.12714	-703.18579	865.25323	-659.75665	-846.16840	448.91559	-976.83264	-514.89496	412.14279	-792.95221	-882.29663	88.61055	-1074.12097				
554	5.530	-592.07892	1354.28796	-1062.43384	-697.14130	1481.30676	-804.13110	-755.21350	1414.46191	-946.93176	-530.71820	1395.45154	-931.52527	-864.44739	1233.66882	-853.80573	-487.43735	1245.65198	-829.36426	-641.66980	1140.71313	-969.57898	-696.39740	1247.70227	-729.61523	-941.37292	914.81573	-835.09222	-370.62378	986.61115	-796.49854	-964.04285	745.66461	-977.94781	-327.55353	787.35529	-962.01617	-729.02130	854.81250	-994.95203	-537.10559	857.18188	-950.48175	-704.78839	863.71832	-668.67206	-844.60706	446.81256	-987.05969	-514.41211	411.78345	-797.71832							
555	5.540	-590.31830	1353.37000	-1070.58545	-695.53851	1479.29810	-811.81732	-754.06012	1413.21948	-955.27167	-531.23297	1394.37378	-938.31012	-863.50751	1231.56824	-864.40436	-486.94543	1244.00513	-835.84375	-640.15454	1139.25476	-978.02386	-697.28937	1245.89575	-738.01044	-939.88196	913.11078	-847.22980	-371.76105	984.41602	-802.96613	-959.80841	741.82910	-986.69354	-328.03564	785.13055	-969.97186	-727.29712	853.83948	-1005.09167	-536.00616	856.29718	-958.66565	-707.23157	861.91254	-678.09387	-843.66162	445.55234	-998.27100	-514.75220	410.80563	-802.15448							
556	5.550	-588.52039	1352.02502	-1078.29163	-695.81232	1477.73535	-820.38196	-752.75525	1412.41455	-964.58734	-527.49878	1394.00549	-944.06378	-863.72363	1229.65515	-874.49072	-486.79660	1242.56628	-843.10870	-638.55682	1137.91968	-986.62878	-696.67438	1243.94189	-746.97601	-938.14221	910.51337	-857.90790	-371.99438	982.63037	-810.13348	-958.72528	739.04254	-996.72742	-328.12933	782.57629	-977.85999	-725.87476	852.14520	-1015.65363	-534.81805	854.96436	-966.15649	-709.91840	860.41650	-688.72797	-842.22638	444.02805	-1009.47186	-514.64471	409.60159	-805.76917							
557	5.560	-586.68127	1350.87378	-1086.43030	-695.03827	1477.04077	-828.96594	-751.56555	1411.12598	-973.02112	-528.54297	1390.38696	-953.77124	-863.00067	1227.64331	-885.28387	-486.72842	1240.55786	-849.03510	-637.52319	1136.79761	-995.61914	-698.89612	1242.06787	-755.63708	-938.47931	908.62549	-870.72327	-374.04962	978.92151	-817.87518	-955.37036	736.02954	-1005.47638	-327.65201	780.36572	-983.88739	-724.08002	851.11755	-1025.65601	-533.84802	853.12775	-973.84326	-712.37170	859.04132	-696.36865	-840.94525	443.00348	-1022.51801	-514.85327	408.46994	-810.70959							
558	5.570	-584.68347	1349.74890	-1094.50281	-695.58673	1474.99207	-837.05933	-750.46271	1409.80701	-981.89563	-526.86304	1390.12292	-960.71088	-863.28589	1226.25244	-896.96698	-486.99350	1238.88892	-856.30072	-636.29913	1135.63879	-1003.99664	-700.10999	1240.97046	-765.42090	-937.79547	907.31824	-882.45917	-375.65784	977.01849	-823.92346	-953.00409	732.82166	-1016.23474	-327.97153	777.43024	-989.47778	-722.20038	849.55969	-1036.10486	-532.60034	851.52972	-981.48236	-714.38165	858.06067	-705.41565	-838.99225	440.81839	-1033.19153	-514.89264	407.98141	-815.98151							
559	5.580	-582.62854	1348.55627	-1102.02344	-695.59088	1473.13904	-845.57898	-749.27380	1408.89905	-991.29395	-527.40686	1387.31470	-971.51819	-862.65869	1224.36963	-908.25555	-487.38455	1237.01184	-863.61108	-633.64862	1134.00061	-1012.47357	-701.21106	1238.21118	-774.47858	-937.89600	905.19415	-894.67401	-376.04337	974.65851	-830.50153	-952.07874	731.20898	-1026.75049	-328.63110	774.13153	-994.92395	-720.41815	848.04730	-1046.18689	-531.33044	850.37555	-990.39728	-717.07477	854.67755	-717.18542	-836.33301	442.78406	-1050.59534	-515.61487	407.30273	-820.19836							
560	5.590				-695.58478	1471.42725	-854.07245	-748.13507	1407.60693	-999.95538	-523.71710	1387.91907	-974.94983	-863.31842	1222.87170	-918.91272	-487.62546	1234.95459	-869.51379	-632.86115	1132.29541	-1020.85040	-702.98480	1235.98108	-783.79700	-936.90979	902.66394	-907.36694	-377.88889	972.74817	-837.34119	-949.16071	728.34186	-1037.22168	-327.01535	771.40765	-1000.48376	-718.95374	847.21167	-1056.86060	-530.24451	848.13361	-997.37762	-719.18073	852.03156	-727.14478				-516.23376	406.62482	-825.34399							
561	5.600				-695.30334	1470.06799	-862.31885	-746.96289	1406.52344	-1009.16437	-525.48889	1385.25269	-982.70331	-862.73248	1221.28870	-930.47711	-488.20850	1233.01880	-875.16925	-632.46606	1131.37939	-1029.77869	-704.18024	1234.53345	-792.24194	-937.12512	900.99023	-919.88214	-378.87585	970.08997	-844.09857	-949.28607	724.12671	-1054.92542	-327.22617	767.85248	-1004.63983	-717.35583	846.04474	-1066.92920	-529.14301	847.38049	-1008.25812	-722.02496	850.52014	-737.36389	-829.58655	440.75681	-1075.47461	-516.90814	406.06342	-830.96704							
562	5.610				-696.22980	1468.57324	-871.29236	-745.62024	1406.02380	-1019.24640	-523.65436	1384.38171	-988.34937	-863.54822	1220.51709	-942.06976	-488.99133	1231.11206	-882.28204	-630.94141	1130.01624	-1038.49609	-706.85651	1233.59705	-803.10461	-936.87207	899.27618	-932.49402	-379.99731	968.69733	-850.57465	-948.17352	725.07825	-1062.26282	-327.66830	764.39246	-1009.21643	-715.77051	844.91876	-1077.97266	-527.97046	845.91339	-1016.52722	-722.73615	849.00214	-747.39655				-518.31653	404.96588	-835.13574							
563	5.620	-573.77472	1345.62109	-1134.37573	-695.82452	1466.20618	-879.22748	-744.45441	1405.28442	-1028.85376	-523.34338	1381.85193	-995.90594	-863.11395	1219.19641	-953.55713	-489.80829	1229.72839	-889.78241	-629.98792	1129.42834	-1047.99646	-707.78455	1231.56372	-811.35223	-937.15125	898.37982	-945.79730	-381.53659	966.06775	-855.61523	-946.96967	723.42670	-1074.15576	-327.32748	761.60370	-1011.48566	-714.44281	843.33655	-1087.22729	-527.06671	844.67236	-1025.65442	-725.66461	846.31317	-759.61224	-821.75751	437.34943	-1100.10852	-519.40900	404.34085	-841.18433							
564	5.630				-697.22705	1465.11084	-887.75177	-743.43671	1404.34546	-1038.22668	-520.01825	1382.54126	-999.85968	-863.81183	1217.63696	-964.38251	-490.34924	1227.72131	-898.22241	-628.21759	1127.58911	-1056.11060	-710.34070	1230.22034	-822.26862	-937.30139	896.92078	-958.88727	-383.67587	964.53870	-861.40759	-945.71765	719.96417	-1091.98999	-325.58884	757.78583	-1013.53680	-713.15027	842.72754	-1099.15540	-526.34357	843.26526	-1034.54065	-727.10181	844.86292	-771.88513				-521.39227	403.26428	-847.85565							
565	5.640				-697.64301	1463.19812	-896.36810	-742.35492	1403.84094	-1047.44006	-523.57166	1379.76416	-1012.91742	-864.22015	1217.29370	-976.61975	-491.59009	1227.03442	-904.60809	-627.46527	1126.64355	-1064.76697	-711.10382	1228.60291	-832.16302	-937.26123	895.91223	-972.22656	-385.73987	963.11792	-866.08276	-946.46942	721.30914	-1098.97986	-325.93762	754.84369	-1017.73248	-711.77930	842.16351	-1110.26074	-525.57275	842.08264	-1043.13525	-729.56549	842.30389	-783.10754				-522.81415	404.17383	-854.45111							
566	5.650	-565.34674	1345.92212	-1156.81860	-699.69617	1462.64648	-905.07776	-741.28955	1403.63782	-1056.93079	-522.60730	1378.71179	-1016.33435	-864.22449	1216.11121	-988.61273	-492.92233	1225.54651	-911.56171	-627.19080	1126.56238	-1074.95105	-714.38910	1227.07166	-842.09552	-938.63385	895.59613	-985.77643	-389.07846	961.16833	-870.07855	-946.02039	721.34644	-1113.19458	-324.96753	752.38477	-1018.07733	-710.40741	841.27667	-1121.03870	-524.87524	841.25879	-1052.37793	-730.39514	841.02924	-795.79718				-524.28577	403.12653	-860.60083							
567	5.660				-701.79895	1461.15613	-913.80353	-740.26453	1403.49731	-1066.76404	-521.67487	1380.06323	-1023.13635	-865.02710	1216.24988	-1000.25482	-494.25735	1224.45605	-918.64783	-626.57660	1126.31824	-1084.90601	-716.41339	1225.87939	-852.12708	-938.67285	895.06183	-999.51398	-390.99905	960.40234	-873.83240	-945.39520	719.58948	-1128.10205	-325.31641	749.46777	-1019.61780	-708.70306	841.39551	-1133.19348	-524.06464	840.88373	-1061.53247	-733.43878	841.47772	-805.09082				-526.53033	401.77856	-868.80847							
568	5.670				-703.74658	1460.75610	-922.45880	-738.91748	1404.16602	-1076.91370	-522.33588	1379.34460	-1030.42200	-865.13971	1215.77441	-1012.83258	-495.74225	1223.26672	-925.30127	-624.98138	1126.22571	-1093.84851	-718.96417	1224.42566	-861.88403	-939.73236	894.30884	-1013.70618	-393.23911	958.98596	-877.77789	-945.25238	718.96747	-1145.49072	-324.80698	746.97723	-1019.35077	-706.98608	840.89282	-1143.63892	-523.35889	840.68176	-1070.61780	-735.76123	839.77191	-817.35626				-526.23145	401.96048	-876.38678							
569	5.680				-705.30597	1459.80566	-930.64996	-737.50336	1405.12817	-1087.29749	-517.96515	1382.43945	-1031.38794	-865.80316	1215.35095	-1024.85803	-497.23123	1222.72693	-931.12775	-624.07245	1126.39038	-1103.23840	-721.49554	1223.45850	-872.71014	-940.00244	894.40051	-1027.52576	-397.41193	957.78595	-882.14551	-945.26648	720.56049	-1154.31372	-325.51947	744.06952	-1020.76703	-704.72351	842.00140	-1156.93689	-522.49689	840.45654	-1078.81030	-738.37701	837.76337	-827.30194				-526.13385	400.93887	-885.05713							
570	5.690	-553.75781	1351.80432	-1180.35864				-736.01837	1406.55798	-1097.32190				-865.48047	1215.69983	-1037.90259	-498.52533	1222.43567	-938.02130	-623.01447	1126.81885	-1111.72241	-723.69836	1223.99658	-883.75989	-941.73792	894.85986	-1042.22083	-400.15036	957.09802	-885.55304	-945.00800	720.45038	-1174.21240	-324.75571	743.16400	-1019.09735	-702.54120	841.88306	-1166.76624	-521.65009	841.33063	-1088.28418	-741.79749	837.71857	-841.22162				-527.92804	400.22736	-894.13751							
571	5.700	-550.56604	1355.40198	-1190.48364	-709.96619	1459.99329	-949.00818	-734.71912	1407.80347	-1107.81738				-865.78705	1216.62549	-1051.14978	-500.45749	1223.12720	-945.16766	-622.14691	1128.47131	-1122.56506	-727.11798	1223.83472	-894.29163	-941.38922	895.16876	-1056.83423	-404.81448	957.25464	-887.80957	-944.44714	722.37921	-1183.66138	-326.63519	741.17627	-1018.70856	-700.27551	842.58636	-1178.84790	-520.96063	841.41974	-1095.80493	-745.33313	837.85095	-855.63843				-527.46277	400.39084	-904.58191							
572	5.710	-520.10718	1383.94727	-1050.20032	-712.10632	1459.49707	-958.60596	-550.13654	1318.35071	-1091.27686				-865.35968	1217.30005	-1064.19788	-501.10629	1223.34119	-951.51495	-620.47888	1128.82800	-1131.08496	-728.20605	1224.04382	-904.34467	-942.19360	896.13470	-1072.13013	-409.24792	957.24463	-890.91138	-944.11322	723.54077	-1198.63879	-327.53891	739.26086	-1016.13116	-698.02771	843.02332	-1188.46484	-520.57068	841.57526	-1103.45850	-748.17352	837.33777	-865.81836				-525.35687	400.45929	-913.45551							
573	5.720	-731.31427	1411.42249	-1128.73950	-714.40686	1460.48999	-968.08057	-520.44830	1385.75293	-1056.27148				-865.28540	1218.70715	-1077.09387	-503.01172	1224.38269	-958.77704	-618.77722	1131.29944	-1141.99402	-731.76538	1225.02905	-915.75195	-945.12653	898.38959	-1084.37305	-413.05209	957.72034	-893.13422	-943.10913	725.22333	-1213.55444	-328.86322	738.20740	-1015.35034	-695.73376	844.65094	-1200.20227	-519.94647	843.02625	-1111.66724	-751.64484	838.29596	-878.76318				-525.25879	400.05429	-925.76752							
574	5.730	-664.66925	110.71315	-673.28003	-716.60406	1459.87561	-977.47028							-864.66339	1219.83862	-1090.44177	-504.44772	1225.83875	-966.37048	-617.18262	1132.21631	-1150.18164	-732.65674	1225.78931	-927.09442	-944.13611	897.52789	-1106.76538	-418.30518	958.99182	-896.94562	-942.10168	726.74103	-1227.31555	-331.03485	738.45508	-1012.57867	-693.56934	846.12708	-1210.77197	-519.36713	845.02692	-1120.30554	-754.18506	840.50055	-890.49615	-520.06537	1388.02869	-1061.68518	-525.44226	399.01807	-937.33789	-729.48425	1413.41785	-1138.94263				
